<svg width="131" height="40" viewBox="0 0 131 40" fill="none" xmlns="http://www.w3.org/2000/svg">
<path d="M72.0168 6.56396C72.7817 6.56396 73.4093 6.79932 73.8996 7.27002C74.3899 7.72111 74.6351 8.30949 74.6351 9.03516C74.6351 9.76083 74.3899 10.359 73.8996 10.8297C73.4093 11.3004 72.7817 11.5358 72.0168 11.5358C71.2715 11.5358 70.6439 11.3004 70.134 10.8297C69.6437 10.359 69.3985 9.76083 69.3985 9.03516C69.3985 8.3291 69.6437 7.74072 70.134 7.27002C70.6439 6.79932 71.2715 6.56396 72.0168 6.56396ZM69.8987 30.2168V14.0364H74.1056V30.2168H69.8987Z" fill="white"/>
<path d="M88.4794 14.0361H92.6863V30.0106C92.6863 32.4034 91.9607 34.3156 90.5093 35.7473C89.058 37.1987 87.1163 37.9243 84.6844 37.9243C82.5858 37.9243 80.7618 37.3948 79.2124 36.3357C77.6826 35.2766 76.7707 33.737 76.4765 31.7169H80.8305C81.262 33.3644 82.5074 34.1881 84.5667 34.1881C87.1752 34.1881 88.4794 32.8349 88.4794 30.1283V27.8042C87.2242 29.4909 85.5277 30.3342 83.3899 30.3342C81.2718 30.3342 79.5066 29.5497 78.0945 27.9807C76.702 26.4117 76.0058 24.421 76.0058 22.0087C76.0058 19.5963 76.7118 17.6056 78.1239 16.0366C79.536 14.4676 81.2914 13.6831 83.3899 13.6831C85.5473 13.6831 87.2438 14.5461 88.4794 16.272V14.0361ZM84.3313 26.3333C85.5277 26.3333 86.5181 25.9312 87.3027 25.1271C88.0872 24.323 88.4794 23.2835 88.4794 22.0087C88.4794 20.7535 88.0774 19.7238 87.2732 18.9197C86.4887 18.096 85.5081 17.6841 84.3313 17.6841C83.1546 17.6841 82.1739 18.096 81.3894 18.9197C80.6245 19.7238 80.2421 20.7535 80.2421 22.0087C80.2421 23.2639 80.6245 24.3034 81.3894 25.1271C82.1739 25.9312 83.1546 26.3333 84.3313 26.3333Z" fill="white"/>
<path d="M59.2804 22.0253C57.7703 21.7115 56.5543 21.3977 55.6325 21.0839C54.7107 20.77 53.8674 20.368 53.1025 19.8777C52.3376 19.407 51.7982 18.8186 51.4844 18.1125C51.151 17.4065 50.9843 16.5533 50.9843 15.5531C50.9843 14.4156 51.2295 13.4055 51.7198 12.5229C52.1905 11.66 52.8279 10.9931 53.632 10.5224C54.4165 10.0517 55.2501 9.69871 56.1326 9.46336C56.9956 9.22801 57.888 9.11033 58.8097 9.11033C61.6144 9.11033 63.7521 9.76735 65.2231 11.0814C66.6744 12.4151 67.5276 14.0821 67.7825 16.0826L63.5462 16.0826C63.252 15.0235 62.7519 14.2488 62.0458 13.7585C61.3202 13.2682 60.2513 13.0231 58.8392 13.0231C57.6624 13.0231 56.77 13.229 56.162 13.6409C55.5344 14.0527 55.2206 14.6313 55.2206 15.3766C55.2206 15.8473 55.3971 16.2199 55.7502 16.4945C56.0836 16.7887 56.4955 17.0044 56.9858 17.1417C57.4761 17.279 58.3488 17.4849 59.6041 17.7595C59.7021 17.7791 59.7806 17.7889 59.8394 17.7889C59.8786 17.8085 59.9473 17.8282 60.0453 17.8478C60.1238 17.8674 60.2022 17.887 60.2807 17.9066C61.3398 18.1223 62.2322 18.3577 62.9578 18.6127C63.6835 18.8676 64.3994 19.2207 65.1054 19.6717C65.8115 20.1228 66.3508 20.7014 66.7234 21.4075C67.0765 22.1135 67.253 22.9569 67.253 23.9375C67.253 25.9772 66.4881 27.5658 64.9583 28.7034C63.4285 29.8409 61.6045 30.4097 59.4864 30.4097C56.8975 30.4097 54.9362 29.8115 53.6026 28.6151C52.2493 27.4384 51.4452 25.9086 51.1902 24.0258L55.456 24.0258C55.9659 25.6732 57.2996 26.4969 59.457 26.4969C60.6533 26.4969 61.5457 26.2714 62.1341 25.8203C62.7225 25.3888 63.0167 24.8201 63.0167 24.114C63.0167 23.5452 62.7715 23.1334 62.2812 22.8784C61.7713 22.6234 60.771 22.3391 59.2804 22.0253Z" fill="white"/>
<path fill-rule="evenodd" clip-rule="evenodd" d="M111.324 15.3313C110.284 14.1938 108.852 13.625 107.028 13.625C104.953 13.625 103.312 14.4291 102.106 16.0372V14.0293H101.998V13.978H97.7909V14.0293H94.6344V17.7648H97.7909V30.1585H101.998V21.6564C101.998 18.9694 103.214 17.626 105.646 17.626C106.724 17.626 107.499 17.9006 107.97 18.4497C108.441 18.9989 108.676 19.8226 108.676 20.9209V30.1585H112.883V20.0089C112.883 18.028 112.363 16.4688 111.324 15.3313Z" fill="white"/>
<path fill-rule="evenodd" clip-rule="evenodd" d="M130.217 14.0361H126.01V22.5382C126.01 23.8523 125.696 24.8525 125.068 25.539C124.46 26.2254 123.578 26.5686 122.421 26.5686C121.362 26.5686 120.597 26.294 120.126 25.7449C119.675 25.1957 119.449 24.372 119.449 23.2737V14.0361H115.242V24.1857C115.242 26.1469 115.752 27.7061 116.772 28.8633C117.812 30.0008 119.224 30.5696 121.009 30.5696C123.107 30.5696 124.774 29.7066 126.01 27.9807V30.2166H126.01V30.6243C126.01 31.8426 125.728 32.7254 125.17 33.3042C124.613 33.8819 123.766 34.1851 122.596 34.1851C121.671 34.1851 120.948 34 120.412 33.6455C119.879 33.2932 119.516 32.7632 119.327 32.0406L119.294 31.9164H114.976L115.004 32.1068C115.28 34.0021 116.139 35.4587 117.585 36.46L117.586 36.4605C119.04 37.454 120.748 37.948 122.704 37.948C124.972 37.948 126.8 37.2701 128.169 35.901C129.538 34.5499 130.217 32.7489 130.217 30.5163V30.2166H130.217V14.0361Z" fill="white"/>
<rect width="40" height="40" rx="9.92226" fill="#1064E5"/>
<path fill-rule="evenodd" clip-rule="evenodd" d="M31.0669 31.479C28.2427 34.0679 24.6634 35.3623 20.329 35.3623C15.7397 35.3623 11.974 33.9306 9.03214 31.0672C6.10986 28.2233 4.64871 24.5165 4.64871 19.9468C4.64871 15.3967 6.07063 11.7095 8.91446 8.88526C11.7779 6.06104 15.4651 4.64893 19.976 4.64893C22.2903 4.64893 24.379 5.04118 26.2422 5.82569L25.5068 9.26771C23.9377 8.54204 22.1334 8.1792 20.0937 8.1792C16.6222 8.17921 13.8078 9.22848 11.6504 11.327C9.51265 13.4256 8.44376 16.3086 8.44376 19.9762C8.44376 23.6242 9.54207 26.5072 11.7387 28.6254C13.9549 30.7632 16.8478 31.8321 20.4173 31.8321C21.9863 31.8321 23.418 31.6065 24.7125 31.1554C26.0265 30.7239 27.1935 30.0571 28.2133 29.1549C29.2528 28.2724 30.0569 27.0858 30.6257 25.5952C30.925 24.837 31.1481 24.0179 31.2952 23.1379C31.474 21.4493 31.5846 19.7435 31.2917 18.4198C31.1344 17.7086 30.8953 17.2879 30.6456 17.0476C30.4332 16.8432 30.0594 16.6179 29.2662 16.6024C27.8586 16.5749 26.289 17.4675 24.689 19.1422C23.1382 20.7652 21.8323 22.8287 21.0315 24.3822C20.7197 24.987 20.5041 25.4851 20.5041 25.4851L20.4214 25.4015L20.4211 25.4021L14.0418 18.9834L16.742 16.2833L19.7286 19.2046C20.3774 18.2843 21.1146 17.3555 21.928 16.5042C23.7642 14.5825 26.3069 12.7254 29.3407 12.7845C30.9308 12.8155 32.2779 13.319 33.2932 14.2959C34.2713 15.237 34.7668 16.45 35.0201 17.5949C35.2198 18.4973 35.2901 19.4665 35.2898 20.4175H35.3033V20.9176C35.3033 22.0604 35.2102 23.1418 35.0242 24.1617L35.0191 24.2066L35.016 24.2063C34.472 27.1401 33.1557 29.5643 31.0669 31.479Z" fill="white"/>
</svg>
