<svg width="131" height="40" viewBox="0 0 131 40" fill="none" xmlns="http://www.w3.org/2000/svg">
<path d="M72.0168 6.56348C72.7817 6.56348 73.4093 6.79883 73.8996 7.26953C74.3899 7.72062 74.6351 8.309 74.6351 9.03467C74.6351 9.76034 74.3899 10.3585 73.8996 10.8292C73.4093 11.2999 72.7817 11.5353 72.0168 11.5353C71.2715 11.5353 70.6439 11.2999 70.134 10.8292C69.6437 10.3585 69.3985 9.76034 69.3985 9.03467C69.3985 8.32861 69.6437 7.74023 70.134 7.26953C70.6439 6.79883 71.2715 6.56348 72.0168 6.56348ZM69.8987 30.2163V14.0359H74.1056V30.2163H69.8987Z" fill="#061224"/>
<path d="M88.4794 14.0366H92.6863V30.0111C92.6863 32.4039 91.9607 34.3161 90.5093 35.7478C89.058 37.1992 87.1163 37.9248 84.6844 37.9248C82.5858 37.9248 80.7618 37.3953 79.2124 36.3362C77.6826 35.2771 76.7707 33.7375 76.4765 31.7174H80.8305C81.262 33.3649 82.5074 34.1886 84.5667 34.1886C87.1752 34.1886 88.4794 32.8353 88.4794 30.1288V27.8047C87.2242 29.4914 85.5277 30.3347 83.3899 30.3347C81.2718 30.3347 79.5066 29.5502 78.0945 27.9812C76.702 26.4122 76.0058 24.4215 76.0058 22.0092C76.0058 19.5968 76.7118 17.6061 78.1239 16.0371C79.536 14.4681 81.2914 13.6836 83.3899 13.6836C85.5473 13.6836 87.2438 14.5466 88.4794 16.2725V14.0366ZM84.3313 26.3338C85.5277 26.3338 86.5181 25.9317 87.3027 25.1276C88.0872 24.3235 88.4794 23.284 88.4794 22.0092C88.4794 20.754 88.0774 19.7243 87.2732 18.9202C86.4887 18.0964 85.5081 17.6846 84.3313 17.6846C83.1546 17.6846 82.1739 18.0964 81.3894 18.9202C80.6245 19.7243 80.2421 20.754 80.2421 22.0092C80.2421 23.2644 80.6245 24.3038 81.3894 25.1276C82.1739 25.9317 83.1546 26.3338 84.3313 26.3338Z" fill="#061224"/>
<path d="M59.2804 22.0257C57.7703 21.7119 56.5543 21.3981 55.6325 21.0843C54.7107 20.7705 53.8674 20.3685 53.1025 19.8782C52.3376 19.4075 51.7982 18.8191 51.4844 18.113C51.151 17.407 50.9843 16.5538 50.9843 15.5536C50.9843 14.416 51.2295 13.406 51.7198 12.5234C52.1905 11.6605 52.8279 10.9936 53.632 10.5229C54.4165 10.0522 55.2501 9.6992 56.1326 9.46385C56.9956 9.22849 57.888 9.11082 58.8097 9.11082C61.6144 9.11082 63.7521 9.76784 65.2231 11.0819C66.6744 12.4156 67.5276 14.0826 67.7825 16.0831L63.5462 16.0831C63.252 15.024 62.7519 14.2493 62.0458 13.759C61.3202 13.2687 60.2513 13.0235 58.8392 13.0235C57.6624 13.0235 56.77 13.2295 56.162 13.6413C55.5344 14.0532 55.2206 14.6318 55.2206 15.3771C55.2206 15.8478 55.3971 16.2204 55.7502 16.495C56.0836 16.7892 56.4955 17.0049 56.9858 17.1422C57.4761 17.2795 58.3488 17.4854 59.6041 17.76C59.7021 17.7796 59.7806 17.7894 59.8394 17.7894C59.8786 17.809 59.9473 17.8286 60.0453 17.8483C60.1238 17.8679 60.2022 17.8875 60.2807 17.9071C61.3398 18.1228 62.2322 18.3582 62.9578 18.6131C63.6835 18.8681 64.3994 19.2211 65.1054 19.6722C65.8115 20.1233 66.3508 20.7019 66.7234 21.408C67.0765 22.114 67.253 22.9573 67.253 23.938C67.253 25.9777 66.4881 27.5663 64.9583 28.7039C63.4285 29.8414 61.6045 30.4102 59.4864 30.4102C56.8975 30.4102 54.9362 29.812 53.6026 28.6156C52.2493 27.4388 51.4452 25.9091 51.1902 24.0262L55.456 24.0262C55.9659 25.6737 57.2996 26.4974 59.457 26.4974C60.6533 26.4974 61.5457 26.2719 62.1341 25.8208C62.7225 25.3893 63.0167 24.8206 63.0167 24.1145C63.0167 23.5457 62.7715 23.1339 62.2812 22.8789C61.7713 22.6239 60.771 22.3396 59.2804 22.0257Z" fill="#061224"/>
<path fill-rule="evenodd" clip-rule="evenodd" d="M111.324 15.3313C110.284 14.1938 108.852 13.625 107.028 13.625C104.953 13.625 103.312 14.4291 102.106 16.0372V14.0293H101.998V13.978H97.7909V14.0293H94.6344V17.7648H97.7909V30.1585H101.998V21.6564C101.998 18.9694 103.214 17.626 105.646 17.626C106.724 17.626 107.499 17.9006 107.97 18.4497C108.441 18.9989 108.676 19.8226 108.676 20.9209V30.1585H112.883V20.0089C112.883 18.028 112.363 16.4688 111.324 15.3313Z" fill="#061224"/>
<path fill-rule="evenodd" clip-rule="evenodd" d="M130.217 14.0361H126.01V22.5382C126.01 23.8523 125.696 24.8525 125.068 25.539C124.46 26.2254 123.578 26.5686 122.421 26.5686C121.362 26.5686 120.597 26.294 120.126 25.7449C119.675 25.1957 119.449 24.372 119.449 23.2737V14.0361H115.242V24.1857C115.242 26.1469 115.752 27.7061 116.772 28.8633C117.812 30.0008 119.224 30.5696 121.009 30.5696C123.107 30.5696 124.774 29.7066 126.01 27.9807V30.2166H126.01V30.6243C126.01 31.8426 125.728 32.7254 125.17 33.3042C124.613 33.8819 123.766 34.1851 122.596 34.1851C121.671 34.1851 120.948 34 120.412 33.6455C119.879 33.2932 119.516 32.7632 119.327 32.0406L119.294 31.9164H114.976L115.004 32.1068C115.28 34.0021 116.139 35.4587 117.585 36.46L117.586 36.4605C119.04 37.454 120.748 37.948 122.704 37.948C124.972 37.948 126.8 37.2701 128.169 35.901C129.538 34.5499 130.217 32.7489 130.217 30.5163V30.2166H130.217V14.0361Z" fill="#061224"/>
<rect width="40" height="40" rx="9.92226" fill="#1064E5"/>
<path fill-rule="evenodd" clip-rule="evenodd" d="M31.0669 31.4785C28.2427 34.0674 24.6634 35.3618 20.329 35.3618C15.7397 35.3618 11.974 33.9301 9.03214 31.0667C6.10986 28.2228 4.64871 24.5161 4.64871 19.9463C4.64871 15.3962 6.07063 11.709 8.91446 8.88477C11.7779 6.06055 15.4651 4.64844 19.976 4.64844C22.2903 4.64844 24.379 5.04069 26.2422 5.8252L25.5068 9.26722C23.9377 8.54155 22.1334 8.17872 20.0937 8.17872C16.6222 8.17872 13.8078 9.22799 11.6504 11.3265C9.51265 13.4251 8.44376 16.3082 8.44376 19.9757C8.44376 23.6237 9.54207 26.5067 11.7387 28.6249C13.9549 30.7627 16.8478 31.8316 20.4173 31.8316C21.9863 31.8316 23.418 31.606 24.7125 31.1549C26.0265 30.7235 27.1935 30.0566 28.2133 29.1544C29.2528 28.2719 30.0569 27.0853 30.6257 25.5947C30.925 24.8365 31.1481 24.0174 31.2952 23.1374C31.474 21.4488 31.5846 19.743 31.2917 18.4194C31.1344 17.7081 30.8953 17.2874 30.6456 17.0471C30.4332 16.8428 30.0594 16.6174 29.2662 16.6019C27.8586 16.5744 26.289 17.467 24.689 19.1417C23.1382 20.7648 21.8323 22.8282 21.0315 24.3817C20.7197 24.9865 20.5041 25.4846 20.5041 25.4846L20.4214 25.4011L20.4211 25.4016L14.0418 18.983L16.742 16.2828L19.7286 19.2042C20.3774 18.2838 21.1146 17.355 21.928 16.5037C23.7642 14.582 26.3069 12.7249 29.3407 12.784C30.9308 12.8151 32.2779 13.3185 33.2932 14.2955C34.2713 15.2365 34.7668 16.4495 35.0201 17.5945C35.2198 18.4968 35.2901 19.466 35.2898 20.417H35.3033V20.9171C35.3033 22.0599 35.2102 23.1413 35.0242 24.1613L35.0191 24.2061L35.016 24.2058C34.472 27.1396 33.1557 29.5639 31.0669 31.4785Z" fill="white"/>
</svg>
