<svg width="275" height="54" viewBox="0 0 275 54" fill="none" xmlns="http://www.w3.org/2000/svg">
<path fill-rule="evenodd" clip-rule="evenodd" d="M191.75 26.2054H178.296C178.296 27.6046 178.296 30.403 178.287 31.8023H186.084C185.785 33.2015 184.726 35.1604 183.229 36.1468C183.228 36.1454 183.226 36.1552 183.223 36.1538C181.233 37.4677 178.607 37.7657 176.658 37.3739C173.601 36.7667 171.183 34.5503 170.201 31.7351C170.206 31.7309 170.211 31.6917 170.215 31.6889C169.6 29.9427 169.6 27.6046 170.215 26.2054H170.213C171.005 23.6337 173.497 21.2872 176.558 20.6449C179.019 20.123 181.797 20.6883 183.839 22.5996C184.111 22.3338 187.599 18.9281 187.861 18.6511C180.882 12.3308 169.707 14.5542 165.526 22.7158H165.525C165.525 22.7158 165.526 22.7158 165.518 22.7312C163.449 26.7399 163.535 31.4637 165.532 35.2807C165.526 35.2849 165.522 35.2877 165.518 35.2919C167.327 38.8039 170.621 41.4974 174.589 42.523C178.805 43.6284 184.17 42.8728 187.763 39.6225C187.765 39.6239 187.766 39.6253 187.768 39.6267C190.812 36.8842 192.708 32.2122 191.75 26.2054Z" fill="#1064E5"/>
<path fill-rule="evenodd" clip-rule="evenodd" d="M117 43H110.846V31.7934C110.846 28.7192 109.543 27.0044 107.206 27.0044C104.663 27.0044 103.154 28.7913 103.154 31.7934V43H97V22.1849H103.154V24.5258C103.154 24.5258 105.085 21 109.435 21C113.788 21 117 23.7636 117 29.483C117 35.2007 117 43 117 43ZM88.0006 17C86.343 17 85 15.6564 85 13.9994C85 12.3436 86.343 11 88.0006 11C89.657 11 91 12.3436 91 13.9994C91.0012 15.6564 89.657 17 88.0006 17ZM85 43H91V23H85V43Z" fill="#1064E5"/>
<path fill-rule="evenodd" clip-rule="evenodd" d="M8.806 42.8889C19.3718 42.8889 25.151 33.3123 25.151 25.0085C25.151 24.7359 25.151 24.4648 25.1342 24.1953C26.2584 23.307 27.2286 22.2043 28 20.9423C26.9528 21.4508 25.8398 21.7847 24.7016 21.9317C25.9 21.146 26.7974 19.9116 27.2272 18.4552C26.0988 19.1872 24.8654 19.7033 23.5788 19.9805C21.4032 17.4505 17.7646 17.328 15.4504 19.7079C13.9594 21.2425 13.3252 23.5306 13.7886 25.713C9.17 25.4588 4.8664 23.0727 1.9488 19.1474C0.4242 22.019 1.204 25.6915 3.7282 27.5355C2.814 27.5064 1.9194 27.2368 1.12 26.7498V26.8295C1.1214 29.8205 3.0492 32.3965 5.7288 32.9892C4.8832 33.2419 3.9956 33.2787 3.136 33.0964C3.8878 35.6571 6.0452 37.4107 8.5022 37.4612C6.468 39.2102 3.955 40.1597 1.3678 40.1567C0.9114 40.1551 0.455 40.126 0 40.0663C2.6278 41.9103 5.684 42.8889 8.806 42.8843" fill="#1064E5"/>
<path fill-rule="evenodd" clip-rule="evenodd" d="M249.186 43V30.4H253.267L253.933 24.8H249.186V22.0728C249.186 20.6308 249.226 19.2 251.375 19.2H253.552V15.196C253.552 15.1358 251.682 15 249.79 15C245.839 15 243.366 17.3198 243.366 21.58V24.8H239V30.4H243.366V43H249.186Z" fill="#1064E5"/>
</svg>
