<svg width="24" height="20" viewBox="0 0 24 20" fill="none" xmlns="http://www.w3.org/2000/svg">
<g filter="url(#filter0_d_31_880)">
<path d="M20 0H4C2.9 0 2 0.9 2 2V14C2 15.1 2.9 16 4 16H20C21.1 16 22 15.1 22 14V2C22 0.9 21.1 0 20 0ZM19.6 4.25L13.06 8.34C12.41 8.75 11.59 8.75 10.94 8.34L4.4 4.25C4.29973 4.19371 4.21192 4.11766 4.14189 4.02645C4.07186 3.93525 4.02106 3.83078 3.99258 3.71937C3.96409 3.60796 3.9585 3.49194 3.97616 3.37831C3.99381 3.26468 4.03434 3.15581 4.09528 3.0583C4.15623 2.96079 4.23632 2.87666 4.33073 2.811C4.42513 2.74533 4.53187 2.69951 4.6445 2.6763C4.75712 2.65309 4.87328 2.65297 4.98595 2.67595C5.09863 2.69893 5.20546 2.74453 5.3 2.81L12 7L18.7 2.81C18.7945 2.74453 18.9014 2.69893 19.014 2.67595C19.1267 2.65297 19.2429 2.65309 19.3555 2.6763C19.4681 2.69951 19.5749 2.74533 19.6693 2.811C19.7637 2.87666 19.8438 2.96079 19.9047 3.0583C19.9657 3.15581 20.0062 3.26468 20.0238 3.37831C20.0415 3.49194 20.0359 3.60796 20.0074 3.71937C19.9789 3.83078 19.9281 3.93525 19.8581 4.02645C19.7881 4.11766 19.7003 4.19371 19.6 4.25Z" fill="#1064E5"/>
</g>
<defs>
<filter id="filter0_d_31_880" x="-2" y="0" width="28" height="24" filterUnits="userSpaceOnUse" color-interpolation-filters="sRGB">
<feFlood flood-opacity="0" result="BackgroundImageFix"/>
<feColorMatrix in="SourceAlpha" type="matrix" values="0 0 0 0 0 0 0 0 0 0 0 0 0 0 0 0 0 0 127 0" result="hardAlpha"/>
<feOffset dy="4"/>
<feGaussianBlur stdDeviation="2"/>
<feComposite in2="hardAlpha" operator="out"/>
<feColorMatrix type="matrix" values="0 0 0 0 0 0 0 0 0 0 0 0 0 0 0 0 0 0 0.25 0"/>
<feBlend mode="normal" in2="BackgroundImageFix" result="effect1_dropShadow_31_880"/>
<feBlend mode="normal" in="SourceGraphic" in2="effect1_dropShadow_31_880" result="shape"/>
</filter>
</defs>
</svg>
