<svg width="131" height="40" viewBox="0 0 131 40" fill="none" xmlns="http://www.w3.org/2000/svg">
<path d="M72.0167 6.56348C72.7816 6.56348 73.4092 6.79883 73.8995 7.26953C74.3899 7.72062 74.635 8.309 74.635 9.03467C74.635 9.76034 74.3899 10.3585 73.8995 10.8292C73.4092 11.2999 72.7816 11.5353 72.0167 11.5353C71.2714 11.5353 70.6438 11.2999 70.1339 10.8292C69.6436 10.3585 69.3984 9.76034 69.3984 9.03467C69.3984 8.32861 69.6436 7.74023 70.1339 7.26953C70.6438 6.79883 71.2714 6.56348 72.0167 6.56348ZM69.8986 30.2163V14.0359H74.1055V30.2163H69.8986Z" fill="#061224"/>
<path d="M88.4795 14.0366H92.6864V30.0111C92.6864 32.4039 91.9607 34.3161 90.5094 35.7478C89.0581 37.1992 87.1164 37.9248 84.6845 37.9248C82.5859 37.9248 80.7619 37.3953 79.2125 36.3362C77.6827 35.2771 76.7708 33.7375 76.4766 31.7174H80.8306C81.262 33.3649 82.5075 34.1886 84.5668 34.1886C87.1753 34.1886 88.4795 32.8353 88.4795 30.1288V27.8047C87.2243 29.4914 85.5278 30.3347 83.39 30.3347C81.2719 30.3347 79.5067 29.5502 78.0946 27.9812C76.7021 26.4122 76.0059 24.4215 76.0059 22.0092C76.0059 19.5968 76.7119 17.6061 78.124 16.0371C79.5361 14.4681 81.2915 13.6836 83.39 13.6836C85.5474 13.6836 87.2439 14.5466 88.4795 16.2725V14.0366ZM84.3314 26.3338C85.5278 26.3338 86.5182 25.9317 87.3027 25.1276C88.0873 24.3235 88.4795 23.284 88.4795 22.0092C88.4795 20.754 88.0774 19.7243 87.2733 18.9202C86.4888 18.0964 85.5082 17.6846 84.3314 17.6846C83.1547 17.6846 82.174 18.0964 81.3895 18.9202C80.6246 19.7243 80.2422 20.754 80.2422 22.0092C80.2422 23.2644 80.6246 24.3038 81.3895 25.1276C82.174 25.9317 83.1547 26.3338 84.3314 26.3338Z" fill="#061224"/>
<path d="M59.2806 22.0257C57.7705 21.7119 56.5545 21.3981 55.6327 21.0843C54.7109 20.7705 53.8675 20.3685 53.1026 19.8782C52.3378 19.4075 51.7984 18.8191 51.4846 18.113C51.1512 17.407 50.9845 16.5538 50.9845 15.5536C50.9845 14.416 51.2296 13.406 51.72 12.5234C52.1907 11.6605 52.8281 10.9936 53.6322 10.5229C54.4167 10.0522 55.2502 9.6992 56.1328 9.46385C56.9958 9.22849 57.8881 9.11082 58.8099 9.11082C61.6145 9.11082 63.7523 9.76784 65.2233 11.0819C66.6746 12.4156 67.5278 14.0826 67.7827 16.0831L63.5464 16.0831C63.2522 15.024 62.7521 14.2493 62.046 13.759C61.3203 13.2687 60.2515 13.0235 58.8393 13.0235C57.6626 13.0235 56.7702 13.2295 56.1622 13.6413C55.5346 14.0532 55.2208 14.6318 55.2208 15.3771C55.2208 15.8478 55.3973 16.2204 55.7504 16.495C56.0838 16.7892 56.4956 17.0049 56.986 17.1422C57.4763 17.2795 58.349 17.4854 59.6042 17.76C59.7023 17.7796 59.7808 17.7894 59.8396 17.7894C59.8788 17.809 59.9475 17.8286 60.0455 17.8483C60.124 17.8679 60.2024 17.8875 60.2809 17.9071C61.34 18.1228 62.2323 18.3582 62.958 18.6131C63.6837 18.8681 64.3995 19.2211 65.1056 19.6722C65.8116 20.1233 66.351 20.7019 66.7236 21.408C67.0767 22.114 67.2532 22.9573 67.2532 23.938C67.2532 25.9777 66.4883 27.5663 64.9585 28.7039C63.4287 29.8414 61.6047 30.4102 59.4866 30.4102C56.8977 30.4102 54.9364 29.812 53.6028 28.6156C52.2495 27.4388 51.4454 25.9091 51.1904 24.0262L55.4562 24.0262C55.9661 25.6737 57.2998 26.4974 59.4571 26.4974C60.6535 26.4974 61.5459 26.2719 62.1343 25.8208C62.7227 25.3893 63.0168 24.8206 63.0168 24.1145C63.0168 23.5457 62.7717 23.1339 62.2814 22.8789C61.7714 22.6239 60.7712 22.3396 59.2806 22.0257Z" fill="#061224"/>
<path fill-rule="evenodd" clip-rule="evenodd" d="M111.324 15.3313C110.284 14.1938 108.852 13.625 107.028 13.625C104.953 13.625 103.312 14.4291 102.105 16.0372V14.0293H101.998V13.978H97.7908V14.0293H94.6343V17.7648H97.7908V30.1585H101.998V21.6564C101.998 18.9694 103.214 17.626 105.646 17.626C106.724 17.626 107.499 17.9006 107.97 18.4497C108.44 18.9989 108.676 19.8226 108.676 20.9209V30.1585H112.883V20.0089C112.883 18.028 112.363 16.4688 111.324 15.3313Z" fill="#061224"/>
<path fill-rule="evenodd" clip-rule="evenodd" d="M130.217 14.0361H126.01V22.5382C126.01 23.8523 125.696 24.8525 125.068 25.5389C124.46 26.2254 123.578 26.5686 122.421 26.5686C121.362 26.5686 120.597 26.294 120.126 25.7449C119.675 25.1957 119.449 24.372 119.449 23.2737V14.0361H115.242V24.1857C115.242 26.1469 115.752 27.7061 116.772 28.8633C117.812 30.0008 119.224 30.5696 121.009 30.5696C123.107 30.5696 124.774 29.7066 126.01 27.9807V30.2166H126.01V30.6243C126.01 31.8426 125.728 32.7254 125.17 33.3042C124.613 33.8819 123.766 34.1851 122.596 34.1851C121.671 34.1851 120.948 34 120.412 33.6455C119.879 33.2932 119.516 32.7632 119.327 32.0406L119.294 31.9164H114.976L115.004 32.1068C115.28 34.0021 116.139 35.4587 117.586 36.46L117.586 36.4605C119.04 37.454 120.748 37.948 122.704 37.948C124.972 37.948 126.8 37.2701 128.169 35.901C129.538 34.5499 130.217 32.7489 130.217 30.5163V30.2166H130.217V14.0361Z" fill="#061224"/>
<rect width="40" height="40" rx="9.92226" fill="#1064E5"/>
<path fill-rule="evenodd" clip-rule="evenodd" d="M31.0672 31.4786C28.2429 34.0674 24.6636 35.3619 20.3292 35.3619C15.7399 35.3619 11.9742 33.9301 9.03235 31.0667C6.11006 28.2229 4.64892 24.5161 4.64892 19.9463C4.64892 15.3962 6.07083 11.709 8.91467 8.88479C11.7781 6.06057 15.4653 4.64845 19.9762 4.64845C22.2905 4.64845 24.3792 5.04071 26.2424 5.82521L25.507 9.26723C23.938 8.54157 22.1336 8.17873 20.0939 8.17873C16.6224 8.17873 13.808 9.22801 11.6506 11.3266C9.51285 13.4251 8.44396 16.3082 8.44396 19.9757C8.44397 23.6237 9.54227 26.5068 11.7389 28.6249C13.9551 30.7627 16.848 31.8316 20.4175 31.8316C21.9865 31.8316 23.4182 31.606 24.7127 31.155C26.0267 30.7235 27.1937 30.0566 28.2135 29.1545C29.253 28.2719 30.0571 27.0853 30.6259 25.5948C30.9252 24.8366 31.1483 24.0175 31.2954 23.1375C31.4742 21.4488 31.5848 19.743 31.2919 18.4194C31.1346 17.7082 30.8955 17.2874 30.6458 17.0471C30.4334 16.8428 30.0596 16.6174 29.2664 16.6019C27.8588 16.5745 26.2892 17.467 24.6892 19.1417C23.1384 20.7648 21.8325 22.8282 21.0317 24.3817C20.7199 24.9865 20.5043 25.4846 20.5043 25.4846L20.4216 25.4011L20.4214 25.4016L14.042 18.983L16.7422 16.2828L19.7288 19.2042C20.3776 18.2838 21.1148 17.355 21.9282 16.5037C23.7644 14.582 26.3071 12.7249 29.3409 12.7841C30.931 12.8151 32.2781 13.3186 33.2935 14.2955C34.2715 15.2365 34.767 16.4495 35.0203 17.5945C35.22 18.4968 35.2903 19.466 35.29 20.417H35.3035V20.9171C35.3035 22.0599 35.2105 23.1413 35.0244 24.1613L35.0193 24.2061L35.0162 24.2058C34.4723 27.1396 33.1559 29.5639 31.0672 31.4786Z" fill="white"/>
</svg>
